<svg xmlns="http://www.w3.org/2000/svg"  width="154" height="27" viewBox="0 0 154 27">
<path fill="#000AD2" fill-rule="evenodd" d="M38.1,16.8L35.8,16l-4.7-3l-4.7-4.6V5.3l-3.1-3.1V0.8h-1.6L18,1.5l-2.3,3.8L14,8.4l-3.1,3V13l-2.3,2.3l-0.8-0.8
	l-6.2,3l-1.5,0.8v3.1l1.7,0.8l3-1.5l3.9,0.6v3l2.3,0.8l3.1-3h2.3v1.5l-0.8,1.5l1.1,1.5l3.6-1.5L19.5,23l0.8-3.8h1.5v1.5l2.3,0.8
	l0.8,2.3l1.6,1.5l1.6-1.5l4.6-1.5l-1.5-1.5l-1.6-3.1H28l0.8,2.3l0.8,0.8L28,22.2h-1.6l-1.6-3v-1.6l-3.1-3l1.6-1.5l-3.1-3l1.5-1.5
	V5.3l1.6-1.5l2.3,2.3l-0.8,2.3l1.6,1.5l3.1,4.6l3.1,1.5l3.9,3.9l2.3,0.8v1.5h1.5l1.6-1.5l-3.1-1.5L38.1,16.8z M48.9,22.2l4.2,0V0.4
	l-4.2,2V22.2z M64.7,6.2c-1.7,0-3,0.6-3.8,1.4v-1h-4.2v15.7H61v-8.6c0-2.7,1-3.5,2.7-3.5c1.7,0,2.7,0.9,2.7,3.7v8.5h4.2v-8.9
	C70.6,8.9,68.8,6.2,64.7,6.2z M80.9,13.8c-0.4,1.2-0.8,2.7-1,3.5c-0.2-0.8-0.6-2.2-1-3.5l-2.3-7.3H72l5.8,15.7h4.3l5.7-15.7h-4.5
	L80.9,13.8z M96.1,6.2c-4.2,0-7.6,3.4-7.6,8.2c0,5,3.3,8.2,8,8.2c1.7,0,4.5-0.6,6.2-3l-3.2-2.3c-0.8,1-2,1.4-2.9,1.4
	c-1.7,0-3.4-0.9-3.7-2.9h10.5c0.1-0.5,0.1-0.7,0.1-1.3C103.3,9.8,100.5,6.2,96.1,6.2z M92.8,12.6c0.3-1.5,1.5-2.8,3.1-2.8
	c2,0,3,1.3,3.2,2.8H92.8z M113.2,12.4c-1.2-0.3-3.5-0.5-3.5-1.6c0-0.6,0.7-1.1,2.5-1.1c1,0,2.5,0.5,3.8,1.1l2.1-2.8
	c-1.6-1-3.9-1.8-5.9-1.8c-3.6,0-6.6,1.9-6.6,4.8c0,4,3.7,4.5,6.8,5.2c0.8,0.1,2.5,0.3,2.5,1.4c0,0.8-1,1.4-2.5,1.4
	c-1.8,0-3.3-0.7-4.8-1.5l-2.1,2.8c1.7,1.1,4.2,2.2,6.7,2.2c3.4,0,6.8-1.8,6.8-5.1C119,13.9,116.1,13.1,113.2,12.4z M129.1,10.2
	c1.5,0,2.7,0.8,3.4,1.9l3.3-2.5c-1.5-2.1-4-3.4-6.8-3.4c-4.6,0-8.3,3.7-8.3,8.2s3.8,8.2,8.3,8.2c2.8,0,5.2-1.3,6.7-3.4l-3.3-2.4
	c-0.7,1.1-1.9,1.8-3.4,1.8c-2.4,0-4.1-1.9-4.1-4.2C125,12,126.7,10.2,129.1,10.2z M145.4,6.2c-4.6,0-8.3,3.7-8.3,8.2
	s3.8,8.1,8.3,8.1c4.6,0,8.3-3.6,8.3-8.1C153.7,9.8,150,6.2,145.4,6.2z M145.4,18.6c-2.4,0-4.1-1.9-4.1-4.2c0-2.3,1.7-4.2,4.1-4.2
	c2.4,0,4.1,1.9,4.1,4.2C149.5,16.7,147.8,18.5,145.4,18.6z"/>
</svg>
